<svg width="300" height="287" viewBox="0 0 300 287" fill="none" xmlns="http://www.w3.org/2000/svg">
<path d="M300 286.802H69.4554V240.693H300V286.802ZM120.337 19.9083L109.624 25.5874C85.1247 -7.93381 62.4853 1.11122 62.4853 1.11122L79.0998 41.8408L51.7112 56.4419L49.5056 81.8018L4.86409e-06 165.374L33.4674 187.945C33.4674 187.945 54.0781 159.98 63.9377 154.393C72.1297 149.782 95.6145 146.516 107.103 145.171L159.007 86.0669L168.228 94.1821L139.679 126.697C139.779 126.835 139.871 126.981 139.971 127.135C167.468 171.837 122.296 208.355 87.338 228.405H282.071C275.263 -14.3737 120.337 19.9083 120.337 19.9083Z" fill="#4C0E19"/>
</svg>
